<svg viewBox="0 0 24 24" xmlns="http://www.w3.org/2000/svg">
    <path
        d="M5.424 6.29a.709.709 0 00-.555.267L3.432 8.37a.625.625 0 10.98.777l.471-.594v3.356a.625.625 0 101.25 0v-4.91a.709.709 0 00-.709-.709zM4.624 15.742a.625.625 0 11-1.201-.344l.007-.026a1.97 1.97 0 01.093-.246c.064-.15.167-.352.32-.557.307-.414.857-.88 1.705-.858.485.013.95.183 1.298.517.353.339.547.808.552 1.336.01.89-.622 1.57-1.122 2.026-.203.185-.422.365-.616.524l-.168.138-.023.02 1.675-.014a.625.625 0 01.01 1.25l-2.98.024-.046-.007h-.006l-.028-.005a.625.625 0 01-.14-.045.663.663 0 01-.234-.175.7.7 0 01-.151-.578c.024-.143.086-.272.15-.38.067-.114.159-.243.28-.392m0 0c.192-.235.455-.461.695-.66l.19-.157c.19-.155.373-.306.55-.467.5-.455.717-.8.714-1.089-.002-.221-.077-.36-.167-.447-.095-.09-.248-.163-.467-.17-.308-.008-.512.143-.669.355a1.552 1.552 0 00-.213.404l-.007.022M11.39 7.008a.625.625 0 100 1.25h8a.625.625 0 100-1.25h-8zM11.39 12.012a.625.625 0 100 1.25h8a.625.625 0 100-1.25h-8zM11.39 17.009a.625.625 0 100 1.25h8a.625.625 0 100-1.25h-8z"></path>
</svg>