<svg viewBox="0 0 21 32" fill="none" xmlns="http://www.w3.org/2000/svg">
    <path
        d="M5.44444 21.1581V16.0387H15.5556V21.1581C15.5556 21.9665 15.7694 22.7547 16.1583 23.3832L18.5811 27.2962C18.6368 27.3868 18.667 27.4995 18.6667 27.6156V30.4794C18.6667 30.6791 18.6968 30.8768 18.7555 31.0613C18.8141 31.2458 18.9 31.4134 19.0084 31.5546C19.1167 31.6958 19.2453 31.8078 19.3869 31.8842C19.5284 31.9607 19.6801 32 19.8333 32C19.9865 32 20.1383 31.9607 20.2798 31.8842C20.4213 31.8078 20.55 31.6958 20.6583 31.5546C20.7666 31.4134 20.8526 31.2458 20.9112 31.0613C20.9698 30.8768 21 30.6791 21 30.4794V27.6156C21 26.8046 20.7861 26.0189 20.3972 25.3854L17.9744 21.4749C17.9187 21.3843 17.8885 21.2716 17.8889 21.1555V15.5343C17.8889 14.8622 17.684 14.2176 17.3194 13.7423C16.9547 13.267 16.4601 13 15.9444 13H5.05556C4.53986 13 4.04528 13.267 3.68063 13.7423C3.31597 14.2176 3.11111 14.8622 3.11111 15.5343V21.1555C3.11149 21.2716 3.08129 21.3843 3.02556 21.4749L0.602778 25.3879C0.212534 26.0189 -0.000187108 26.8051 1.23491e-07 27.6156V30.4794C1.23491e-07 30.8827 0.122916 31.2695 0.341709 31.5546C0.560501 31.8398 0.857247 32 1.16667 32C1.47609 32 1.77283 31.8398 1.99163 31.5546C2.21042 31.2695 2.33333 30.8827 2.33333 30.4794V27.6156C2.33296 27.4995 2.36316 27.3868 2.41889 27.2962L4.84167 23.3832C5.23056 22.7522 5.44444 21.9665 5.44444 21.1555V21.1581Z"
        fill="currentColor" />
    <path
        d="M5 4.89077C5.00013 4.55512 5.09006 4.22701 5.25848 3.94773C5.42691 3.66844 5.66629 3.45047 5.94652 3.32125L12.8684 0.131151C13.1025 0.0231746 13.3572 -0.0191418 13.6097 0.00796745C13.8622 0.0350767 14.1048 0.130771 14.3157 0.286534C14.5267 0.442297 14.6996 0.653299 14.8189 0.900763C14.9383 1.14823 15.0005 1.42448 15 1.70493V13H5V4.89077Z"
        fill="#EFF31E" />
</svg>