<svg className="w-10 h-10 text-violet-500" fill="none" stroke="currentColor" viewBox="0 0 24 24">
    <g transform="translate(0, 0)">
        <path strokeLinecap="round" strokeLinejoin="round" strokeWidth="1.5"
            d="M21 21l-6-6m2-5a7 7 0 11-14 0 7 7 0 0114 0z"></path>
    </g>
    <g transform="translate(16.5, -2.5) scale(0.35)">
        <path fill="currentColor" strokeLinecap="round" strokeLinejoin="round" strokeWidth="1.5"
            d="M11.049 2.927c.3-.921 1.603-.921 1.902 0l1.519 4.674a1 1 0 00.95.69h4.915c.969 0 1.371 1.24.588 1.81l-3.976 2.888a1 1 0 00-.363 1.118l1.518 4.674c.3.922-.755 1.688-1.538 1.118l-3.976-2.888a1 1 0 00-1.176 0l-3.976 2.888c-.783.57-1.838-.197-1.538-1.118l1.518-4.674a1 1 0 00-.363-1.118l-3.976-2.888c-.784-.57-.38-1.81.588-1.81h4.914a1 1 0 00.951-.69l1.519-4.674z"></path>
    </g>
</svg>