<svg xmlns="http://www.w3.org/2000/svg" viewBox="0 0 512 512" preserveAspectRatio="xMidYMid meet">
    <g transform="translate(0,512) scale(0.1,-0.1)" fill="currentColor" stroke="none">
        <path
            d="M2380 3305 c-175 -28 -373 -111 -510 -214 -83 -63 -214 -198 -269 -279 -229 -338 -263 -781 -86 -1149 58 -123 112 -200 209 -301 101 -106 185 -169 306 -231 292 -150 639 -172 940 -58 453 170 750 601 750 1087 0 508 -324 951 -810 1110 -153 49 -353 63 -530 35z m330 -296 c110 -20 242 -71 314 -122 l28 -20 -598 -598 c-330 -330 -601 -599 -604 -599 -10 0 -68 104 -93 168 -83 203 -81 447 3 652 136 330 481 553 825 533 39 -3 95 -9 125 -14z m598 -419 c35 -59 64 -132 90 -225 13 -45 17 -100 16 -215 0 -142 -2 -162 -28 -240 -50 -149 -107 -245 -213 -353 -147 -150 -329 -236 -540 -255 -189 -18 -361 21 -517 115 l-58 36 598 598 c330 330 603 598 609 596 5 -2 25 -28 43 -57z" />
    </g>
</svg>