<svg xmlns="http://www.w3.org/2000/svg" viewBox="0 0 512 512">
    <g transform="translate(0,512) scale(0.1,-0.1)" fill="#757575">
        <path
            d="M2220 5106 c-149 -42 -257 -152 -299 -305 -11 -41 -22 -75 -24 -77 -2 -2 -179 37 -394 86 -216 50 -413 90 -440 90 -153 -1 -304 -93 -371 -226 -30 -60 -112 -382 -112 -442 0 -50 36 -82 115 -101 39 -10 637 -147 1331 -307 l1261 -289 -1286 -5 c-1019 -4 -1291 -8 -1308 -18 -13 -7 -30 -26 -38 -42 -14 -28 -5 -139 130 -1558 79 -840 149 -1553 154 -1584 22 -128 120 -252 238 -300 l58 -23 1240 0 1240 0 60 24 c84 34 183 134 215 216 20 53 39 235 166 1555 79 822 143 1496 144 1498 0 1 17 -1 38 -4 43 -7 95 14 111 44 19 37 91 383 91 440 0 81 -31 176 -79 243 -87 122 -129 139 -586 244 -209 47 -385 88 -391 90 -9 3 -8 19 2 62 49 209 -47 408 -238 492 -23 11 -230 63 -459 115 -429 99 -480 106 -569 82z m503 -272 c205 -47 391 -90 414 -96 57 -14 127 -77 149 -133 12 -33 15 -61 11 -103 -12 -113 57 -117 -607 35 -322 74 -587 136 -589 139 -11 11 24 117 50 154 34 47 114 90 167 90 18 0 200 -38 405 -86z m-89 -489 c849 -195 1557 -360 1573 -366 70 -26 132 -119 133 -197 0 -34 -45 -260 -53 -269 -2 -2 -211 46 -1722 393 -1556 357 -1759 404 -1763 408 -5 6 33 173 54 237 26 81 116 147 201 149 18 0 727 -160 1577 -355z m1462 -1067 c-3 -29 -67 -694 -141 -1478 -74 -784 -139 -1442 -145 -1462 -14 -50 -55 -97 -105 -119 -38 -18 -97 -19 -1230 -19 -1133 0 -1192 1 -1230 19 -50 22 -91 70 -104 119 -12 45 -291 2974 -284 2985 2 4 733 7 1625 7 l1620 0 -6 -52z" />
        <path
            d="M2453 3112 c-12 -2 -33 -15 -47 -29 l-26 -26 0 -1293 0 -1293 23 -26 c29 -34 87 -44 123 -20 56 37 54 -22 54 1332 0 811 -4 1261 -10 1284 -6 20 -17 42 -24 48 -19 16 -66 28 -93 23z" />
        <path
            d="M1536 3079 c-18 -21 -26 -42 -26 -67 0 -148 123 -2522 132 -2545 12 -30 54 -57 88 -57 35 0 76 27 89 58 10 23 0 273 -49 1288 -33 692 -63 1270 -66 1282 -9 43 -48 72 -98 72 -37 0 -48 -5 -70 -31z" />
        <path
            d="M3275 3086 c-13 -13 -26 -39 -29 -57 -3 -19 -30 -558 -61 -1199 -30 -641 -58 -1206 -61 -1257 l-7 -92 36 -36 c51 -51 122 -43 153 17 11 21 28 297 74 1250 33 673 60 1249 60 1280 0 46 -5 62 -26 87 -22 26 -33 31 -70 31 -34 0 -51 -6 -69 -24z" />
    </g>
</svg>