<svg xmlns="http://www.w3.org/2000/svg" viewBox="0 0 178 178" fill="none">
    <path
        d="M0 20C0 8.9543 8.95431 0 20 0H158C169.046 0 178 8.95431 178 20V158C178 169.046 169.046 178 158 178H20C8.9543 178 0 169.046 0 158V20Z"
        fill="#111111" />
    <path
        d="M50.74 129.04L59.42 102.86C61.1 97.9133 63.9467 95.44 67.96 95.44C71.9733 95.44 74.7733 97.96 76.36 103L84.76 129.04L92.6 102.44C94 97.7733 96.6133 95.44 100.44 95.44C102.4 95.44 104.127 96.14 105.62 97.54C107.113 98.94 107.86 100.527 107.86 102.3C107.86 103.047 107.767 103.84 107.58 104.68C107.487 105.427 107.3 106.22 107.02 107.06L94 145.28C92.2267 150.693 89.1467 153.4 84.76 153.4C80.3733 153.4 77.2933 150.6 75.52 145L67.12 119.38L58.72 145C56.8533 150.6 53.7267 153.4 49.34 153.4C44.7667 153.4 41.5933 150.6 39.82 145L27.92 107.76C27.5467 106.92 27.2667 106.08 27.08 105.24C26.9867 104.4 26.94 103.653 26.94 103C26.94 100.947 27.7333 99.1733 29.32 97.68C31 96.1867 32.9133 95.44 35.06 95.44C39.1667 95.44 41.92 98.0067 43.32 103.14L50.74 129.04ZM136.71 153.4C130.177 153.4 125.51 151.16 122.71 146.68C121.217 144.347 120.19 141.407 119.63 137.86C119.07 134.313 118.79 129.18 118.79 122.46V73.46C118.79 70.2867 119.49 67.86 120.89 66.18C122.29 64.5 124.25 63.66 126.77 63.66C129.383 63.66 131.39 64.5 132.79 66.18C134.19 67.86 134.89 70.2867 134.89 73.46V125.26C134.89 128.62 135.03 131.233 135.31 133.1C135.59 134.967 136.057 136.367 136.71 137.3C137.457 138.233 138.437 138.933 139.65 139.4C141.05 139.96 142.123 140.893 142.87 142.2C143.71 143.413 144.13 145 144.13 146.96C144.037 148.827 143.29 150.367 141.89 151.58C140.49 152.793 138.763 153.4 136.71 153.4Z"
        fill="white" />
</svg>