<svg xmlns="http://www.w3.org/2000/svg" viewBox="0 0 830 250" fill="none">
    <path
        d="M263.56 180C262.36 180 261.58 179.4 261.22 178.2L232.96 56.34V55.62C232.96 54.54 233.62 54 234.94 54H257.08C258.52 54 259.3 54.66 259.42 55.98L273.1 125.1C273.22 125.46 273.4 125.64 273.64 125.64C273.88 125.64 274.06 125.46 274.18 125.1L287.32 55.98C287.44 54.66 288.22 54 289.66 54H309.64C310.96 54 311.74 54.66 311.98 55.98L326.38 125.1C326.5 125.46 326.68 125.64 326.92 125.64C327.16 125.64 327.34 125.46 327.46 125.1L340.42 55.98C340.54 54.66 341.32 54 342.76 54H364C365.56 54 366.16 54.78 365.8 56.34L339.52 178.02C339.28 179.34 338.5 180 337.18 180H316.84C315.52 180 314.74 179.34 314.5 178.02L299.92 105.66C299.8 105.3 299.62 105.12 299.38 105.12C299.14 105.12 298.96 105.3 298.84 105.66L285.7 178.02C285.58 179.34 284.8 180 283.36 180H263.56ZM405.493 181.44C395.053 181.44 386.473 178.86 379.753 173.7C373.153 168.42 369.193 161.22 367.873 152.1C366.913 146.58 366.433 140.4 366.433 133.56C366.433 126.6 366.913 120.42 367.873 115.02C369.193 106.14 373.153 99.12 379.753 93.96C386.473 88.68 395.053 86.04 405.493 86.04C415.813 86.04 424.213 88.68 430.693 93.96C437.293 99.12 441.313 106.14 442.753 115.02C443.713 120.42 444.193 126.6 444.193 133.56C444.193 140.28 443.713 146.4 442.753 151.92C441.433 161.16 437.473 168.42 430.873 173.7C424.393 178.86 415.933 181.44 405.493 181.44ZM405.493 159.66C408.613 159.66 411.253 158.64 413.413 156.6C415.693 154.56 417.193 151.8 417.913 148.32C418.513 143.28 418.813 138.36 418.813 133.56C418.813 128.64 418.513 123.78 417.913 118.98C417.313 115.5 415.873 112.8 413.593 110.88C411.433 108.84 408.673 107.82 405.313 107.82C402.073 107.82 399.313 108.84 397.033 110.88C394.873 112.8 393.493 115.5 392.893 118.98C392.293 122.58 391.993 127.44 391.993 133.56C391.993 139.56 392.233 144.48 392.713 148.32C393.433 151.8 394.933 154.56 397.213 156.6C399.493 158.64 402.253 159.66 405.493 159.66ZM502.68 86.22C505.92 86.22 508.86 86.94 511.5 88.38C512.46 88.98 512.82 89.94 512.58 91.26L508.98 111.96C508.86 113.4 508.02 113.82 506.46 113.22C504.54 112.74 502.8 112.5 501.24 112.5C499.8 112.5 498.24 112.68 496.56 113.04C493.08 113.52 490.14 115.2 487.74 118.08C485.34 120.96 484.14 124.44 484.14 128.52V177.84C484.14 178.44 483.9 178.98 483.42 179.46C483.06 179.82 482.58 180 481.98 180H460.92C460.32 180 459.78 179.82 459.3 179.46C458.94 178.98 458.76 178.44 458.76 177.84V89.64C458.76 89.04 458.94 88.56 459.3 88.2C459.78 87.72 460.32 87.48 460.92 87.48H481.98C482.58 87.48 483.06 87.72 483.42 88.2C483.9 88.56 484.14 89.04 484.14 89.64V96.84C484.14 97.32 484.2 97.62 484.32 97.74C484.56 97.74 484.8 97.56 485.04 97.2C489.24 89.88 495.12 86.22 502.68 86.22ZM524.553 180C523.953 180 523.413 179.82 522.933 179.46C522.573 178.98 522.393 178.44 522.393 177.84V56.16C522.393 55.56 522.573 55.08 522.933 54.72C523.413 54.24 523.953 54 524.553 54H545.613C546.213 54 546.693 54.24 547.053 54.72C547.533 55.08 547.773 55.56 547.773 56.16V116.28C547.773 116.64 547.893 116.88 548.133 117C548.373 117.12 548.613 117 548.853 116.64L569.013 88.74C569.613 87.9 570.453 87.48 571.533 87.48H594.393C595.593 87.48 596.193 87.9 596.193 88.74C596.193 89.1 596.013 89.58 595.653 90.18L574.413 119.7C574.173 120.06 574.173 120.48 574.413 120.96L598.893 177.48C599.013 177.72 599.073 178.08 599.073 178.56C599.073 179.52 598.473 180 597.273 180H575.133C573.813 180 572.973 179.4 572.613 178.2L558.033 139.5C557.913 139.14 557.733 138.96 557.493 138.96C557.253 138.96 557.013 139.08 556.773 139.32L548.133 151.2C547.893 151.68 547.773 152.04 547.773 152.28V177.84C547.773 178.44 547.533 178.98 547.053 179.46C546.693 179.82 546.213 180 545.613 180H524.553ZM612.611 180C612.011 180 611.471 179.82 610.991 179.46C610.631 178.98 610.451 178.44 610.451 177.84V56.16C610.451 55.56 610.631 55.08 610.991 54.72C611.471 54.24 612.011 54 612.611 54H633.671C634.271 54 634.751 54.24 635.111 54.72C635.591 55.08 635.831 55.56 635.831 56.16V177.84C635.831 178.44 635.591 178.98 635.111 179.46C634.751 179.82 634.271 180 633.671 180H612.611ZM651.412 215.82C651.052 215.82 650.752 215.58 650.512 215.1C650.272 214.74 650.152 214.26 650.152 213.66V197.1C650.152 195.66 650.812 194.94 652.132 194.94C658.972 194.82 663.832 193.8 666.712 191.88C669.712 190.08 671.632 186.3 672.472 180.54L672.292 179.46L646.372 89.82L646.192 89.1C646.192 87.9 646.852 87.3 648.172 87.3H670.852C672.172 87.3 672.952 87.96 673.192 89.28L684.892 145.26C685.012 145.74 685.192 145.98 685.432 145.98C685.672 145.98 685.852 145.74 685.972 145.26L697.672 89.28C697.912 87.96 698.692 87.3 700.012 87.3L722.332 87.48C723.052 87.48 723.532 87.72 723.772 88.2C724.132 88.56 724.252 89.1 724.132 89.82L696.592 183.42C693.952 192.18 691.132 198.72 688.132 203.04C685.252 207.48 681.112 210.72 675.712 212.76C670.312 214.8 662.572 215.82 652.492 215.82H651.412Z"
        fill="#111111" />
    <path
        d="M0 48C0 36.9543 8.95431 28 20 28H158C169.046 28 178 36.9543 178 48V186C178 197.046 169.046 206 158 206H20C8.9543 206 0 197.046 0 186V48Z"
        fill="#111111" />
    <path
        d="M50.74 157.04L59.42 130.86C61.1 125.913 63.9467 123.44 67.96 123.44C71.9733 123.44 74.7733 125.96 76.36 131L84.76 157.04L92.6 130.44C94 125.773 96.6133 123.44 100.44 123.44C102.4 123.44 104.127 124.14 105.62 125.54C107.113 126.94 107.86 128.527 107.86 130.3C107.86 131.047 107.767 131.84 107.58 132.68C107.487 133.427 107.3 134.22 107.02 135.06L94 173.28C92.2267 178.693 89.1467 181.4 84.76 181.4C80.3733 181.4 77.2933 178.6 75.52 173L67.12 147.38L58.72 173C56.8533 178.6 53.7267 181.4 49.34 181.4C44.7667 181.4 41.5933 178.6 39.82 173L27.92 135.76C27.5467 134.92 27.2667 134.08 27.08 133.24C26.9867 132.4 26.94 131.653 26.94 131C26.94 128.947 27.7333 127.173 29.32 125.68C31 124.187 32.9133 123.44 35.06 123.44C39.1667 123.44 41.92 126.007 43.32 131.14L50.74 157.04ZM136.71 181.4C130.177 181.4 125.51 179.16 122.71 174.68C121.217 172.347 120.19 169.407 119.63 165.86C119.07 162.313 118.79 157.18 118.79 150.46V101.46C118.79 98.2867 119.49 95.86 120.89 94.18C122.29 92.5 124.25 91.66 126.77 91.66C129.383 91.66 131.39 92.5 132.79 94.18C134.19 95.86 134.89 98.2867 134.89 101.46V153.26C134.89 156.62 135.03 159.233 135.31 161.1C135.59 162.967 136.057 164.367 136.71 165.3C137.457 166.233 138.437 166.933 139.65 167.4C141.05 167.96 142.123 168.893 142.87 170.2C143.71 171.413 144.13 173 144.13 174.96C144.037 176.827 143.29 178.367 141.89 179.58C140.49 180.793 138.763 181.4 136.71 181.4Z"
        fill="white" />
</svg>