<svg xmlns="http://www.w3.org/2000/svg" version="1.0"
    viewBox="0 0 512 512" preserveAspectRatio="xMidYMid meet">
    <g transform="translate(0,512) scale(0.100000,-0.100000)" fill="currentColor"
        stroke="none">
        <path
            d="M2325 4949 c-211 -20 -499 -94 -702 -181 -1136 -487 -1721 -1750 -1352 -2922 294 -932 1113 -1591 2089 -1677 237 -21 514 0 754 57 327 78 677 249 931 453 39 31 76 61 84 65 9 6 96 -74 305 -282 314 -314 315 -314 403 -297 49 9 109 69 118 118 17 88 17 89 -297 403 -208 209 -288 296 -282 305 4 8 34 46 65 84 149 184 309 477 387 705 208 611 166 1266 -118 1838 -128 258 -266 449 -468 650 -502 498 -1204 747 -1917 681z m436 -319 c718 -73 1345 -508 1664 -1155 507 -1027 82 -2271 -950 -2780 -345 -171 -741 -243 -1116 -204 -720 73 -1345 507 -1664 1154 -285 577 -285 1253 0 1830 132 267 304 486 540 685 412 348 986 524 1526 470z" />
        <path
            d="M1844 3351 c-49 -12 -134 -63 -160 -94 -14 -17 -37 -53 -52 -81 -22 -43 -26 -64 -26 -136 -1 -78 2 -90 33 -148 38 -70 70 -100 145 -140 43 -22 64 -26 136 -26 73 0 92 4 137 27 66 34 116 84 150 150 23 45 27 64 27 137 0 72 -4 93 -26 136 -39 75 -70 107 -137 143 -65 34 -164 49 -227 32z" />
        <path
            d="M3124 3351 c-49 -12 -134 -63 -160 -94 -14 -17 -37 -53 -52 -81 -22 -43 -26 -64 -26 -136 -1 -78 2 -90 33 -148 38 -70 70 -100 145 -140 43 -22 64 -26 136 -26 73 0 92 4 137 27 66 34 116 84 150 150 23 45 27 64 27 137 0 72 -4 93 -26 136 -39 75 -70 107 -137 143 -65 34 -164 49 -227 32z" />
        <path
            d="M2417 2549 c-259 -38 -518 -204 -660 -424 -71 -111 -87 -149 -87 -206 0 -126 126 -198 235 -135 32 20 51 42 86 108 107 201 310 332 533 345 252 14 485 -119 606 -347 39 -72 53 -88 90 -108 106 -55 230 19 230 137 -1 86 -88 232 -214 357 -92 92 -140 126 -252 182 -175 88 -372 120 -567 91z" />
    </g>
</svg>