<svg xmlns="http://www.w3.org/2000/svg" viewBox="3.125 2.0859999656677246 13.75 15.422000885009766">
    <g fill-rule="evenodd" clip-rule="evenodd" fill="currentColor">
        <path
            d="M5.171 7.091h9.656l-.455 8.251a2.292 2.292 0 01-2.288 2.166H7.933a2.292 2.292 0 01-2.288-2.16L5.17 7.09zm1.324 1.25l.398 6.935c.031.55.488.982 1.04.982h4.151c.553 0 1.01-.432 1.04-.985l.382-6.932h-7.01zM9.167 2.086a2.292 2.292 0 00-2.292 2.292v.205H3.75a.625.625 0 100 1.25h12.5a.625.625 0 100-1.25h-3.125v-.205a2.292 2.292 0 00-2.292-2.292H9.167zm2.708 2.497v-.205c0-.575-.466-1.042-1.042-1.042H9.167c-.576 0-1.042.467-1.042 1.042v.205h3.75z"></path>
    </g>
</svg>