<svg xmlns="http://www.w3.org/2000/svg" viewBox="0 0 512 449"
    preserveAspectRatio="xMidYMid meet">
    <g transform="translate(0,449) scale(0.1,-0.1)" fill="#f04748" stroke="none">
        <path
            d="M2515 4481 c-42 -10 -66 -25 -96 -58 -22 -22 -2337 -4021 -2391 -4128 -24 -47 -29 -93 -16 -143 15 -62 78 -125 140 -140 65 -17 4733 -17 4809 -1 69 15 130 74 148 143 13 53 8 92 -19 146 -59 117 -2366 4100 -2388 4123 -48 51 -122 74 -187 58z m111 -1632 c113 -21 190 -80 213 -164 15 -57 -70 -1215 -94 -1271 -20 -49 -70 -102 -112 -120 -94 -40 -214 15 -257 118 -21 49 -109 1221 -96 1268 24 85 95 144 200 166 71 16 76 16 146 3z m20 -1728 c86 -39 139 -149 115 -239 -14 -50 -67 -113 -115 -136 -44 -21 -128 -21 -169 0 -57 29 -97 75 -113 132 -17 57 -13 95 16 152 49 96 166 136 266 91z" />
    </g>
</svg>